HIERARCHY
ROOT root
{
	OFFSET 0.000000 0.000000 0.000000
	CHANNELS 6 Xposition Yposition Zposition Zrotation Yrotation Xrotation
	JOINT lhip
	{
		OFFSET 0.058581 -0.082280 -0.017664
		CHANNELS 3 Zrotation Yrotation Xrotation
		JOINT lknee
		{
			OFFSET 0.043451 -0.386469 0.008037
			CHANNELS 3 Zrotation Yrotation Xrotation
			JOINT lankle
			{
				OFFSET -0.014790 -0.426874 -0.037428
				CHANNELS 3 Zrotation Yrotation Xrotation
				JOINT ltoe
				{
					OFFSET 0.041054 -0.060286 0.122042
					CHANNELS 3 Zrotation Yrotation Xrotation
					End Site
					{
						OFFSET 0.000000 0.000000 0.000000
					}
				}
			}
		}
	}
	JOINT rhip
	{
		OFFSET -0.060310 -0.090513 -0.013543
		CHANNELS 3 Zrotation Yrotation Xrotation
		JOINT rknee
		{
			OFFSET -0.043257 -0.383688 -0.004843
			CHANNELS 3 Zrotation Yrotation Xrotation
			JOINT rankle
			{
				OFFSET 0.019056 -0.420046 -0.034562
				CHANNELS 3 Zrotation Yrotation Xrotation
				JOINT rtoe
				{
					OFFSET -0.034840 -0.062106 0.130323
					CHANNELS 3 Zrotation Yrotation Xrotation
					End Site
					{
						OFFSET 0.000000 0.000000 0.000000
					}
				}
			}
		}
	}
	JOINT lowerback
	{
		OFFSET 0.004439 0.124404 -0.038385
		CHANNELS 3 Zrotation Yrotation Xrotation
		JOINT upperback
		{
			OFFSET 0.004488 0.137956 0.026820
			CHANNELS 3 Zrotation Yrotation Xrotation
			JOINT chest
			{
				OFFSET -0.002265 0.056032 0.002855
				CHANNELS 3 Zrotation Yrotation Xrotation
				JOINT lowerneck
				{
					OFFSET -0.013390 0.211636 -0.033468
					CHANNELS 3 Zrotation Yrotation Xrotation
					JOINT upperneck
					{
						OFFSET 0.010113 0.088937 0.050410
						CHANNELS 3 Zrotation Yrotation Xrotation
						End Site
						{
							OFFSET 0.000000 0.000000 0.000000
						}
					}
				}
				JOINT lclavicle
				{
					OFFSET 0.071702 0.114000 -0.018898
					CHANNELS 3 Zrotation Yrotation Xrotation
					JOINT lshoulder
					{
						OFFSET 0.122921 0.045205 -0.019046
						CHANNELS 3 Zrotation Yrotation Xrotation
						JOINT lelbow
						{
							OFFSET 0.255332 -0.015649 -0.022946
							CHANNELS 3 Zrotation Yrotation Xrotation
							JOINT lwrist
							{
								OFFSET 0.265709 0.012698 -0.007375
								CHANNELS 3 Zrotation Yrotation Xrotation
								End Site
								{
									OFFSET 0.000000 0.000000 0.000000
								}
							}
						}
					}
				}
				JOINT rclavicle
				{
					OFFSET -0.082954 0.112472 -0.023707
					CHANNELS 3 Zrotation Yrotation Xrotation
					JOINT rshoulder
					{
						OFFSET -0.113228 0.046853 -0.008472
						CHANNELS 3 Zrotation Yrotation Xrotation
						JOINT relbow
						{
							OFFSET -0.260127 -0.014369 -0.031269
							CHANNELS 3 Zrotation Yrotation Xrotation
							JOINT rwrist
							{
								OFFSET -0.269108 0.006794 -0.006027
								CHANNELS 3 Zrotation Yrotation Xrotation
								End Site
								{
									OFFSET 0.000000 0.000000 0.000000
								}
							}
						}
					}
				}
			}
		}
	}
}
MOTION
Frames: 8
Frame Time: 0.033333
0.536819 0.846944 1.361783 163.315815 -10.102831 84.602465 7.583758 -9.615404 -20.328897 -3.283495 -5.906464 40.198566 0.364836 8.027791 13.822204 0.000000 -0.000000 0.000000 3.661249 0.495121 -11.058124 1.235970 3.002267 32.198949 14.091471 -1.452796 33.662727 0.000000 -0.000000 0.000000 -4.833213 2.111248 16.190347 3.169595 -5.771644 0.168824 0.678797 -3.739259 3.399696 -2.789615 0.646614 8.851059 11.001182 3.557105 3.397960 -23.776024 -4.731712 2.037170 -48.155697 -12.429623 15.995265 -8.346918 -66.929404 22.567390 6.989835 -6.943441 -10.354145 21.462426 -4.030708 -0.014817 64.756731 -9.143058 16.748498 -20.150827 65.574589 -5.112437 -0.483701 4.536259 -12.009977 
0.542956 0.858005 1.337155 175.527956 -11.864330 83.363143 8.769784 -8.104586 -22.264650 -3.803628 -2.052287 43.981894 -0.121080 8.379914 12.250344 0.000000 -0.000000 0.000000 1.921593 1.668779 -11.095836 0.381054 7.427243 31.419136 14.512459 -0.531772 30.088015 0.000000 -0.000000 0.000000 -5.837473 2.728841 14.598198 3.245319 -5.832368 0.103819 0.336367 -3.577349 3.783747 -2.598408 1.600762 8.696444 10.935384 2.611770 3.181772 -22.053349 -3.545801 2.096015 -42.733253 -12.415673 13.327494 -6.704249 -69.683880 17.586621 6.672571 -7.216729 -11.249150 22.283062 -5.130733 -0.254711 63.680652 -9.686806 17.023082 -18.959437 64.821901 -4.864567 -0.985890 3.935018 -8.659659 
0.546671 0.871150 1.301201 -172.913890 -13.383034 82.260891 9.712951 -6.082496 -24.934745 -4.303996 1.203636 48.951736 0.260105 8.888368 11.630644 0.000000 -0.000000 0.000000 0.003786 2.595210 -10.486324 -0.624219 12.689970 29.734035 15.186664 0.186708 28.649004 0.000000 -0.000000 0.000000 -6.748930 3.395474 12.915092 3.219753 -5.703916 -0.787275 0.122802 -3.502235 4.821535 -2.721374 1.390810 7.910529 11.277231 2.317732 3.495402 -20.020991 -1.638802 0.898286 -37.851910 -12.427936 11.187973 -7.410132 -72.829265 16.443248 9.070212 -6.817187 -12.951364 22.371018 -6.032514 -1.003720 63.496623 -10.728528 17.542038 -19.681012 63.980281 -7.439514 -1.280865 4.331316 -8.992086 
0.548350 0.887582 1.254622 -161.112400 -14.181106 80.403045 11.209821 -4.547638 -27.179576 -4.479713 4.992893 53.798773 0.435967 9.965399 11.352745 0.000000 -0.000000 0.000000 -1.882073 3.152026 -7.805203 -0.864246 17.678485 27.083873 14.379618 1.426173 26.130719 0.000000 -0.000000 0.000000 -7.746289 3.715729 10.917084 3.513545 -6.288932 -0.947998 -0.035256 -3.261834 5.580454 -2.793510 1.801965 7.567722 11.296337 1.753813 3.368915 -18.198594 0.084277 0.927875 -33.114059 -11.836817 8.831966 -7.030645 -76.946836 14.137718 9.711388 -5.852071 -16.603681 22.530000 -7.038300 -1.290972 62.991895 -10.666814 17.932222 -19.549503 63.064199 -7.894971 0.347685 3.403291 -8.181192 
0.544376 0.903971 1.198039 -148.374053 -14.777634 78.311794 12.657959 -5.176337 -30.556760 -4.879852 8.890186 59.670832 -0.516430 9.759274 11.403111 0.000000 -0.000000 0.000000 -4.671834 3.232210 -3.859533 -1.441706 19.313098 24.018939 11.884714 0.612706 21.806655 0.000000 -0.000000 0.000000 -8.666104 3.871691 8.774052 3.627264 -7.366043 -1.331737 -0.482013 -3.387886 6.303662 -3.071631 1.664771 7.714065 11.324791 1.612183 2.893841 -16.098648 2.444496 1.152456 -30.136290 -11.397095 6.986907 -3.518292 -80.063532 10.326210 10.128158 -5.924681 -18.293413 22.266390 -8.643204 -2.280488 62.725848 -10.886476 18.436419 -19.153194 62.008259 -7.792106 1.909565 2.962340 -7.275162 
0.541872 0.919658 1.130407 -137.404888 -14.399478 76.020263 14.068514 -4.550393 -33.640535 -5.827767 10.280907 66.909622 -0.794640 8.964263 11.184164 0.000000 -0.000000 0.000000 -4.963897 2.521822 -1.088263 -2.416938 20.648965 23.743432 7.870061 -1.985065 25.882376 0.000000 -0.000000 0.000000 -9.382466 4.771715 7.569315 3.726788 -7.720582 -1.662065 -0.567422 -3.695314 6.881841 -4.373142 0.742841 7.988981 11.958432 2.798294 2.628050 -14.578207 3.490572 2.619033 -26.049241 -9.521821 4.485063 -2.872741 -83.829408 10.173537 10.102161 -5.157573 -19.112441 22.012348 -8.889925 -2.215374 62.482630 -11.147585 17.919563 -18.949950 61.326778 -8.222322 3.282084 2.921116 -7.927540 
0.539236 0.932054 1.051148 -126.024612 -13.100165 74.135169 14.500240 -5.463815 -37.665049 -7.122054 11.125208 75.880762 -1.215687 9.067642 8.885891 0.000000 -0.000000 0.000000 -4.082016 4.497323 0.401012 1.353085 21.297478 31.109854 4.869132 -2.288943 3.441443 0.000000 -0.000000 0.000000 -10.641886 5.521942 6.636595 4.566268 -8.147502 -0.785947 -0.631961 -3.784585 6.683543 -3.307704 2.742783 8.362363 11.006719 0.634719 1.809254 -12.063832 3.776511 3.220982 -24.543623 -8.836082 4.429968 -0.623943 -85.501930 6.574643 10.870580 -4.129738 -22.576089 22.360299 -8.690495 -2.520461 61.953520 -11.200023 17.699822 -18.952874 59.852388 -8.021404 1.173121 2.544870 -7.856827 
0.537371 0.944077 0.978558 -115.063141 -10.440975 69.938168 12.573528 -7.489433 -35.384241 -7.529211 10.401753 83.126663 -3.774646 9.173388 6.203911 0.000000 -0.000000 0.000000 0.112961 8.761858 5.365013 -0.066916 10.288126 36.913146 1.344297 -6.901339 -25.474177 0.000000 -0.000000 0.000000 -10.182807 5.762372 10.604620 5.073964 -8.222290 -0.678567 -1.029951 -3.620446 5.267453 -0.739829 5.438133 11.817776 8.918128 -1.889538 -1.796636 -12.679156 2.277983 3.638580 -21.439071 -7.396575 5.127306 3.717672 -84.042345 2.201246 10.502046 -4.074355 -23.711599 24.459090 -5.789563 -3.104729 60.243445 -11.466422 18.024124 -17.806853 55.596663 -6.331881 -5.306351 3.371621 -8.876556 
